HIERARCHY
ROOT Hips
{
 OFFSET 0.000000 0.000000 0.000000
 CHANNELS 6 Xposition Yposition Zposition Yrotation Xrotation Zrotation
 JOINT Chest
 {
  OFFSET 0.000000 9.585900 0.002600
  CHANNELS 3 Yrotation Xrotation Zrotation
  JOINT Chest2
  {
   OFFSET 0.000000 9.601200 -0.005300
   CHANNELS 3 Yrotation Xrotation Zrotation
   JOINT Chest3
   {
    OFFSET 0.000000 9.561800 0.000000
    CHANNELS 3 Yrotation Xrotation Zrotation
    JOINT Chest4
    {
     OFFSET 0.000000 9.552100 0.000000
     CHANNELS 3 Yrotation Xrotation Zrotation
     JOINT Neck
     {
      OFFSET 0.000000 14.453000 0.000000
      CHANNELS 3 Yrotation Xrotation Zrotation
      JOINT Head
      {
       OFFSET 0.000000 8.936500 -0.011300
       CHANNELS 3 Yrotation Xrotation Zrotation
       End Site
       {
        OFFSET 0.000000 17.073600 -0.006000
       }
      }
     }
     JOINT RightCollar
     {
      OFFSET -2.921100 9.558500 0.000000
      CHANNELS 3 Yrotation Xrotation Zrotation
      JOINT RightShoulder
      {
       OFFSET -13.519700 0.000000 0.000000
       CHANNELS 3 Yrotation Xrotation Zrotation
       JOINT RightElbow
       {
        OFFSET 0.000000 -29.696600 0.000000
        CHANNELS 3 Yrotation Xrotation Zrotation
        JOINT RightWrist
        {
         OFFSET 0.000000 -24.004700 0.000000
         CHANNELS 3 Yrotation Xrotation Zrotation
         End Site
         {
          OFFSET 0.000000 -17.728500 0.000000
         }
        }
       }
      }
     }
     JOINT LeftCollar
     {
      OFFSET 2.921100 9.558500 0.000000
      CHANNELS 3 Yrotation Xrotation Zrotation
      JOINT LeftShoulder
      {
       OFFSET 13.519700 0.000000 0.000000
       CHANNELS 3 Yrotation Xrotation Zrotation
       JOINT LeftElbow
       {
        OFFSET 0.000000 -29.696600 0.000000
        CHANNELS 3 Yrotation Xrotation Zrotation
        JOINT LeftWrist
        {
         OFFSET 0.000000 -24.004700 0.000000
         CHANNELS 3 Yrotation Xrotation Zrotation
         End Site
         {
          OFFSET 0.000000 -17.728500 0.000000
         }
        }
       }
      }
     }
    }
   }
  }
 }
 JOINT RightHip
 {
  OFFSET -7.771700 -0.012900 -0.001300
  CHANNELS 3 Yrotation Xrotation Zrotation
  JOINT RightKnee
  {
   OFFSET 0.000000 -40.869800 0.001200
   CHANNELS 3 Yrotation Xrotation Zrotation
   JOINT RightAnkle
   {
    OFFSET 0.000000 -39.717900 0.002100
    CHANNELS 3 Yrotation Xrotation Zrotation
    JOINT RightToe
    {
     OFFSET 0.000000 -4.965400 11.033500
     CHANNELS 3 Yrotation Xrotation Zrotation
     End Site
     {
      OFFSET 0.000000 -1.423100 5.872300
     }
    }
   }
  }
 }
 JOINT LeftHip
 {
  OFFSET 7.771700 -0.012900 -0.001300
  CHANNELS 3 Yrotation Xrotation Zrotation
  JOINT LeftKnee
  {
   OFFSET 0.000000 -40.869800 0.001200
   CHANNELS 3 Yrotation Xrotation Zrotation
   JOINT LeftAnkle
   {
    OFFSET 0.000000 -39.717900 0.002100
    CHANNELS 3 Yrotation Xrotation Zrotation
    JOINT LeftToe
    {
     OFFSET 0.000000 -4.965400 11.033500
     CHANNELS 3 Yrotation Xrotation Zrotation
     End Site
     {
      OFFSET 0.000000 -1.423100 5.872300
     }
    }
   }
  }
 }
}
MOTION
Frames: 12
Frame Time: 0.008333
0.000000 85.388000 0.000000 0.000000 -5.767877 0.000000 0.000000 11.653817 0.000000 0.000000 -5.885947 0.000000 0.000000 -0.000000 0.000000 0.000000 -0.000000 0.000000 0.000000 12.528835 0.000000 0.000000 0.711642 0.000000 0.000000 -0.000000 0.000000 0.000000 0.000000 -90.000000 0.000000 -2.309062 0.000000 0.000000 2.309062 0.000000 0.000000 -0.000000 0.000000 0.000000 -0.000000 90.000000 0.000000 -2.309062 0.000000 0.000000 2.309062 0.000000 0.000000 8.520406 0.000000 0.000000 1.905762 0.000000 -0.000000 -4.658285 0.000000 0.000000 -0.000000 0.000000 0.000000 8.520406 0.000000 0.000000 1.905762 0.000000 -0.000000 -4.658285 0.000000 0.000000 -0.000000 0.000000
-11.959493 57.242442 43.605277 -179.344592 -31.892219 -0.881850 1.753145 20.077662 4.140103 0.140767 2.584153 0.335310 0.238808 4.231713 0.552944 1.288670 17.368484 2.458104 -3.844740 13.657883 0.414574 -7.403287 -10.377214 2.300871 3.384991 0.773352 -1.505683 12.993092 -26.479891 -15.728833 133.830127 -78.058761 -111.502348 12.767307 -20.257398 -55.151078 -7.682388 -0.864017 -1.800509 14.115074 -10.540043 -1.820246 130.643021 -76.689105 -152.663493 -1.911996 -13.832714 30.487189 12.108933 -39.046738 -9.222970 -0.922045 67.065235 0.897178 7.247068 4.354841 8.855854 -0.040951 0.162170 -0.040633 -14.813107 -47.143055 4.227791 27.266990 71.124973 27.430845 -18.384977 25.068297 -4.781368 -0.116503 -15.748450 -5.618819
-11.960474 57.244465 43.606189 -179.358316 -31.881290 -0.875096 1.761032 20.078133 4.135317 0.141018 2.585492 0.335368 0.234830 4.248835 0.549959 1.283526 17.412935 2.453205 -3.965997 13.645270 0.457356 -7.664253 -10.322463 2.420886 3.373707 0.757857 -1.508777 12.844463 -26.391186 -15.677100 134.262921 -77.932568 -111.972768 12.776245 -20.267115 -55.146592 -7.660309 -0.913665 -1.787170 14.236891 -10.412894 -1.766421 130.740140 -76.591408 -152.727016 -1.902357 -13.985867 30.646493 12.109063 -39.055617 -9.228439 -0.925464 67.059016 0.901409 7.259626 4.355155 8.850374 -0.039919 0.162113 -0.039993 -14.805775 -47.149534 4.228790 27.266759 71.117958 27.430903 -18.383240 25.071321 -4.776389 -0.122040 -15.745751 -5.622213
-11.961312 57.246676 43.607493 -179.364739 -31.867214 -0.873766 1.763865 20.075320 4.132407 0.141274 2.586747 0.335381 0.230243 4.267137 0.548560 1.288844 17.400821 2.454345 -4.099888 13.684079 0.492536 -7.919183 -10.275703 2.537746 3.327105 0.823632 -1.510200 12.716894 -26.323900 -15.627653 134.722024 -77.808981 -112.465013 12.785432 -20.280078 -55.139250 -7.646754 -0.880970 -1.787104 14.359319 -10.309665 -1.737452 130.959482 -76.506587 -152.904158 -1.890245 -14.156886 30.829980 12.104587 -39.067078 -9.231918 -0.942434 67.052424 0.892430 7.276089 4.356851 8.844477 -0.039331 0.161385 -0.039029 -14.805731 -47.158610 4.229118 27.271132 71.106805 27.440015 -18.373831 25.077847 -4.783623 -0.116831 -15.742731 -5.620158
-11.961136 57.247982 43.610789 -179.379126 -31.838847 -0.874092 1.769377 20.071778 4.129858 0.141528 2.589353 0.335659 0.233347 4.271812 0.552009 1.285801 17.417487 2.453262 -4.223043 13.687822 0.528716 -8.170737 -10.240553 2.652596 3.320530 0.802591 -1.513904 12.553308 -26.196451 -15.558340 135.183355 -77.685710 -112.954155 12.803542 -20.295806 -55.139630 -7.609030 -0.816618 -1.789532 14.471613 -10.267027 -1.738666 131.263580 -76.429318 -153.156265 -1.882212 -14.333914 31.038685 12.110743 -39.093605 -9.236387 -0.956921 67.042214 0.892739 7.288834 4.361835 8.838198 -0.051285 0.161021 -0.038144 -14.806984 -47.182695 4.243970 27.271325 71.099245 27.443802 -18.351642 25.087862 -4.779848 -0.122193 -15.742689 -5.621528
-11.963026 57.251002 43.611587 -179.380038 -31.827195 -0.868168 1.764678 20.085156 4.120861 0.133374 2.622274 0.332356 0.240143 4.246999 0.553988 1.285188 17.432980 2.453513 -4.346395 13.686242 0.563735 -8.420565 -10.214857 2.766280 3.294530 0.809409 -1.520317 12.410803 -26.093774 -15.488866 135.636100 -77.557071 -113.430016 12.790526 -20.344680 -55.090782 -7.593360 -0.835307 -1.785612 14.609211 -10.144465 -1.746198 131.619496 -76.347378 -153.450326 -1.880867 -14.507381 31.261074 12.100937 -39.102155 -9.240208 -0.946372 67.039293 0.903108 7.272616 4.361482 8.831426 -0.045428 0.160377 -0.035771 -14.800132 -47.193029 4.234116 27.265456 71.088310 27.442567 -18.347382 25.110351 -4.770163 -0.139200 -15.756648 -5.628492
-11.966792 57.253851 43.612744 -179.380747 -31.811693 -0.848735 1.750143 20.099299 4.093431 0.138327 2.623749 0.333101 0.240909 4.241734 0.555241 1.287490 17.445517 2.453133 -4.471159 13.692438 0.598304 -8.668761 -10.192318 2.879328 3.243347 0.868687 -1.527431 12.287688 -26.026888 -15.420718 136.103752 -77.415033 -113.916143 12.845374 -20.335263 -55.143672 -7.583331 -0.842219 -1.781095 14.753480 -10.025267 -1.775948 131.979924 -76.255225 -153.738072 -1.888762 -14.684451 31.483044 12.102598 -39.114322 -9.257982 -0.938228 67.040630 0.900516 7.260567 4.358954 8.833369 -0.027442 0.159697 -0.035003 -14.781402 -47.210253 4.211622 27.274765 71.072190 27.446708 -18.325595 25.147923 -4.734837 -0.166103 -15.780542 -5.648051
-11.968715 57.254949 43.616735 -179.394939 -31.774247 -0.829454 1.754785 20.104553 4.074103 0.141088 2.610792 0.334240 0.242827 4.220577 0.558184 1.289247 17.464267 2.451150 -4.595890 13.706669 0.631409 -8.914461 -10.169099 2.991328 3.205094 0.911955 -1.531896 12.144045 -25.926331 -15.340058 136.586638 -77.256697 -114.416924 12.901654 -20.318281 -55.195937 -7.570551 -0.799964 -1.775694 14.901373 -9.945411 -1.841296 132.324037 -76.154376 -153.999210 -1.903867 -14.870678 31.685348 12.116649 -39.149376 -9.278052 -0.921617 67.034550 0.905813 7.280635 4.356383 8.845467 -0.035737 0.161080 -0.037743 -14.766898 -47.247952 4.213278 27.266456 71.061388 27.437040 -18.267488 25.182454 -4.687308 -0.211625 -15.800225 -5.673839
-11.962941 57.259416 43.615255 -179.417413 -31.772271 -0.847601 1.785201 20.115712 4.104155 0.140605 2.610894 0.334150 0.244056 4.237928 0.555972 1.291401 17.441191 2.453465 -4.720716 13.737283 0.660434 -9.155226 -10.146780 3.099512 3.172726 0.959406 -1.535603 11.993647 -25.807032 -15.251461 137.053770 -77.085070 -114.911079 12.931521 -20.317209 -55.204663 -7.562725 -0.735573 -1.778093 15.059789 -9.868209 -1.930453 132.707969 -76.043282 -154.280168 -1.920867 -15.056886 31.851399 12.075626 -39.152588 -9.214767 -0.910221 67.018817 0.898002 7.293220 4.358339 8.843604 -0.035445 0.161175 -0.036961 -14.772720 -47.240466 4.259479 27.254386 71.051954 27.434556 -18.146761 25.263706 -4.584352 -0.313696 -15.866382 -5.734422
-11.966394 57.263682 43.613628 -179.435537 -31.767635 -0.807810 1.786950 20.138967 4.066901 0.143007 2.597858 0.336110 0.242421 4.253282 0.554102 1.293810 17.443593 2.453311 -4.838716 13.744639 0.691084 -9.389647 -10.127930 3.204374 3.159610 0.955589 -1.536529 11.826491 -25.655310 -15.153709 137.501879 -76.901833 -115.398925 12.957908 -20.315339 -55.199231 -7.547944 -0.695720 -1.777996 15.217561 -9.781805 -2.044353 133.208679 -75.920941 -154.645358 -1.932386 -15.233428 31.979456 12.101406 -39.152759 -9.248186 -0.903492 67.024296 0.896373 7.300247 4.349802 8.843740 -0.034481 0.162489 -0.036411 -14.715862 -47.246990 4.225775 27.215677 71.043281 27.409858 -18.036186 25.318813 -4.488910 -0.422454 -15.909477 -5.789239
-11.963648 57.266377 43.614163 -179.435292 -31.742782 -0.809710 1.785546 20.140873 4.063031 0.143366 2.599761 0.336318 0.242997 4.256094 0.554412 1.289658 17.484331 2.447870 -4.947462 13.711877 0.728466 -9.615704 -10.111249 3.307298 3.152278 0.911194 -1.534663 11.658614 -25.497084 -15.049599 137.935081 -76.704953 -115.883364 12.983517 -20.312315 -55.184268 -7.525112 -0.687735 -1.767922 15.376364 -9.697276 -2.185760 133.851510 -75.790460 -155.116180 -1.934788 -15.400520 32.082721 12.097668 -39.174468 -9.254141 -0.908142 67.020796 0.904771 7.305273 4.350455 8.830565 -0.032616 0.162163 -0.035159 -14.707700 -47.265270 4.222869 27.226922 71.031284 27.423378 -17.481803 25.406515 -4.460045 -0.393204 -15.895234 -5.765771
-11.954562 57.265249 43.620321 -179.394615 -31.672166 -0.866424 1.760742 20.096643 4.091063 0.132773 2.631228 0.330754 0.243507 4.260619 0.554124 1.297390 17.456788 2.451524 -5.056450 13.716374 0.760098 -9.832934 -10.091665 3.408330 3.134322 0.933233 -1.534696 11.500764 -25.360935 -14.941655 138.344948 -76.492583 -116.356662 13.006168 -20.311048 -55.163337 -7.499926 -0.637147 -1.769641 15.537368 -9.619032 -2.345739 134.628182 -75.654689 -155.682654 -1.931521 -15.567002 32.174923 12.023942 -39.246257 -9.208751 -0.924016 67.007932 0.887265 7.301962 4.354968 8.817021 -0.033887 0.163190 -0.031441 -14.749795 -47.325331 4.240317 27.279413 71.022303 27.475493 -16.354171 25.502474 -4.608017 -0.093381 -15.762377 -5.577441
